# xmcd
#
# Track frame offsets: 
#        150
#        17277
#        40677
#        66111
#        85278
#        108306
#        127417
#        147686
#        166777
#        182135
#        202408
#
# Disc length: 2932 seconds
#
# Revision: 0
# Processed by: cddbd v1.5.2PL0 Copyright (c) Steve Scherf et al.
# Submitted via: ExactAudioCopyFreeDBPlugin 1.0
#
DISCID=9f0b720b
DTITLE=The Campbell Brothers - Beyond The 4 Walls
DYEAR=2013
DGENRE=Blues
TTITLE0=Hell No! Heaven Yes!
TTITLE1=It's Alright Now
TTITLE2=Mama's Gone
TTITLE3=Believe I'll Run On
TTITLE4=Lord, I Just Want To Thank You
TTITLE5=Nobody's Fault But Mine
TTITLE6=When All Of God's Children Get Together
TTITLE7=Joy 
TTITLE8=Make A Joyful Noise
TTITLE9=I Ain't Going To Cry No More
TTITLE10=God, Can We Talk For A Minute?
EXTD=
EXTT0=
EXTT1=
EXTT2=
EXTT3=
EXTT4=
EXTT5=
EXTT6=
EXTT7=
EXTT8=
EXTT9=
EXTT10=
PLAYORDER=
